<mxfile host="Electron" agent="Mozilla/5.0 (Windows NT 10.0; Win64; x64) AppleWebKit/537.36 (KHTML, like Gecko) draw.io/24.7.8 Chrome/128.0.6613.36 Electron/32.0.1 Safari/537.36" version="24.7.8">
  <diagram id="R2lEEEUBdFMjLlhIrx00" name="Page-1">
    <mxGraphModel dx="1035" dy="626" grid="1" gridSize="10" guides="1" tooltips="1" connect="1" arrows="1" fold="1" page="1" pageScale="1" pageWidth="850" pageHeight="1100" math="0" shadow="0" extFonts="Permanent Marker^https://fonts.googleapis.com/css?family=Permanent+Marker">
      <root>
        <mxCell id="0" />
        <mxCell id="1" parent="0" />
        <mxCell id="EoM2yVk25Wv87Vjmri1m-1" value="Alumnos" style="whiteSpace=wrap;html=1;align=center;" vertex="1" parent="1">
          <mxGeometry x="340" y="200" width="100" height="40" as="geometry" />
        </mxCell>
        <mxCell id="EoM2yVk25Wv87Vjmri1m-3" value="Ciclo" style="whiteSpace=wrap;html=1;align=center;" vertex="1" parent="1">
          <mxGeometry x="40" y="200" width="100" height="40" as="geometry" />
        </mxCell>
        <mxCell id="EoM2yVk25Wv87Vjmri1m-4" value="Profesores" style="whiteSpace=wrap;html=1;align=center;" vertex="1" parent="1">
          <mxGeometry x="340" y="400" width="100" height="40" as="geometry" />
        </mxCell>
        <mxCell id="EoM2yVk25Wv87Vjmri1m-6" value="Cursar" style="shape=rhombus;perimeter=rhombusPerimeter;whiteSpace=wrap;html=1;align=center;" vertex="1" parent="1">
          <mxGeometry x="190" y="195" width="90" height="50" as="geometry" />
        </mxCell>
        <mxCell id="EoM2yVk25Wv87Vjmri1m-7" value="Completar" style="shape=rhombus;perimeter=rhombusPerimeter;whiteSpace=wrap;html=1;align=center;" vertex="1" parent="1">
          <mxGeometry x="510" y="190" width="90" height="60" as="geometry" />
        </mxCell>
        <mxCell id="EoM2yVk25Wv87Vjmri1m-8" value="Supervisar" style="shape=rhombus;perimeter=rhombusPerimeter;whiteSpace=wrap;html=1;align=center;" vertex="1" parent="1">
          <mxGeometry x="340" y="300" width="100" height="50" as="geometry" />
        </mxCell>
        <mxCell id="EoM2yVk25Wv87Vjmri1m-9" value="Formar" style="shape=rhombus;perimeter=rhombusPerimeter;whiteSpace=wrap;html=1;align=center;" vertex="1" parent="1">
          <mxGeometry x="510" y="395" width="90" height="50" as="geometry" />
        </mxCell>
        <mxCell id="EoM2yVk25Wv87Vjmri1m-10" value="" style="endArrow=none;html=1;rounded=0;exitX=1;exitY=0.5;exitDx=0;exitDy=0;entryX=0;entryY=0.5;entryDx=0;entryDy=0;" edge="1" parent="1" source="EoM2yVk25Wv87Vjmri1m-7" target="EoM2yVk25Wv87Vjmri1m-36">
          <mxGeometry relative="1" as="geometry">
            <mxPoint x="370" y="260" as="sourcePoint" />
            <mxPoint x="650" y="220" as="targetPoint" />
          </mxGeometry>
        </mxCell>
        <mxCell id="EoM2yVk25Wv87Vjmri1m-11" value="" style="endArrow=none;html=1;rounded=0;exitX=1;exitY=0.5;exitDx=0;exitDy=0;entryX=0;entryY=0.5;entryDx=0;entryDy=0;" edge="1" parent="1" source="EoM2yVk25Wv87Vjmri1m-1" target="EoM2yVk25Wv87Vjmri1m-7">
          <mxGeometry relative="1" as="geometry">
            <mxPoint x="370" y="260" as="sourcePoint" />
            <mxPoint x="530" y="260" as="targetPoint" />
          </mxGeometry>
        </mxCell>
        <mxCell id="EoM2yVk25Wv87Vjmri1m-12" value="" style="endArrow=none;html=1;rounded=0;exitX=1;exitY=0.5;exitDx=0;exitDy=0;entryX=0;entryY=0.5;entryDx=0;entryDy=0;" edge="1" parent="1" source="EoM2yVk25Wv87Vjmri1m-6" target="EoM2yVk25Wv87Vjmri1m-1">
          <mxGeometry relative="1" as="geometry">
            <mxPoint x="370" y="260" as="sourcePoint" />
            <mxPoint x="530" y="260" as="targetPoint" />
          </mxGeometry>
        </mxCell>
        <mxCell id="EoM2yVk25Wv87Vjmri1m-13" value="" style="endArrow=none;html=1;rounded=0;exitX=1;exitY=0.5;exitDx=0;exitDy=0;entryX=0;entryY=0.5;entryDx=0;entryDy=0;" edge="1" parent="1" source="EoM2yVk25Wv87Vjmri1m-3" target="EoM2yVk25Wv87Vjmri1m-6">
          <mxGeometry relative="1" as="geometry">
            <mxPoint x="370" y="260" as="sourcePoint" />
            <mxPoint x="530" y="260" as="targetPoint" />
          </mxGeometry>
        </mxCell>
        <mxCell id="EoM2yVk25Wv87Vjmri1m-14" value="" style="endArrow=none;html=1;rounded=0;entryX=0;entryY=0.5;entryDx=0;entryDy=0;exitX=1;exitY=0.5;exitDx=0;exitDy=0;" edge="1" parent="1" source="EoM2yVk25Wv87Vjmri1m-9" target="EoM2yVk25Wv87Vjmri1m-37">
          <mxGeometry relative="1" as="geometry">
            <mxPoint x="93" y="400" as="sourcePoint" />
            <mxPoint x="660" y="420" as="targetPoint" />
          </mxGeometry>
        </mxCell>
        <mxCell id="EoM2yVk25Wv87Vjmri1m-15" value="" style="endArrow=none;html=1;rounded=0;entryX=1;entryY=0.5;entryDx=0;entryDy=0;exitX=0;exitY=0.5;exitDx=0;exitDy=0;" edge="1" parent="1" source="EoM2yVk25Wv87Vjmri1m-9" target="EoM2yVk25Wv87Vjmri1m-4">
          <mxGeometry relative="1" as="geometry">
            <mxPoint x="330" y="420" as="sourcePoint" />
            <mxPoint x="290" y="420" as="targetPoint" />
          </mxGeometry>
        </mxCell>
        <mxCell id="EoM2yVk25Wv87Vjmri1m-16" value="" style="endArrow=none;html=1;rounded=0;entryX=0.5;entryY=1;entryDx=0;entryDy=0;exitX=0.5;exitY=0;exitDx=0;exitDy=0;" edge="1" parent="1" source="EoM2yVk25Wv87Vjmri1m-4" target="EoM2yVk25Wv87Vjmri1m-8">
          <mxGeometry relative="1" as="geometry">
            <mxPoint x="370" y="260" as="sourcePoint" />
            <mxPoint x="530" y="260" as="targetPoint" />
          </mxGeometry>
        </mxCell>
        <mxCell id="EoM2yVk25Wv87Vjmri1m-17" value="" style="endArrow=none;html=1;rounded=0;exitX=0.5;exitY=1;exitDx=0;exitDy=0;entryX=0.5;entryY=0;entryDx=0;entryDy=0;" edge="1" parent="1" source="EoM2yVk25Wv87Vjmri1m-1" target="EoM2yVk25Wv87Vjmri1m-8">
          <mxGeometry relative="1" as="geometry">
            <mxPoint x="370" y="260" as="sourcePoint" />
            <mxPoint x="530" y="260" as="targetPoint" />
          </mxGeometry>
        </mxCell>
        <mxCell id="EoM2yVk25Wv87Vjmri1m-18" value="1:1" style="text;html=1;align=center;verticalAlign=middle;resizable=0;points=[];autosize=1;strokeColor=none;fillColor=none;" vertex="1" parent="1">
          <mxGeometry x="440" y="188" width="40" height="30" as="geometry" />
        </mxCell>
        <mxCell id="EoM2yVk25Wv87Vjmri1m-19" value="1:1" style="text;html=1;align=center;verticalAlign=middle;resizable=0;points=[];autosize=1;strokeColor=none;fillColor=none;" vertex="1" parent="1">
          <mxGeometry x="610" y="188" width="40" height="30" as="geometry" />
        </mxCell>
        <mxCell id="EoM2yVk25Wv87Vjmri1m-20" value="1:1" style="text;html=1;align=center;verticalAlign=middle;resizable=0;points=[];autosize=1;strokeColor=none;fillColor=none;" vertex="1" parent="1">
          <mxGeometry x="400" y="365" width="40" height="30" as="geometry" />
        </mxCell>
        <mxCell id="EoM2yVk25Wv87Vjmri1m-21" value="1:1" style="text;html=1;align=center;verticalAlign=middle;resizable=0;points=[];autosize=1;strokeColor=none;fillColor=none;" vertex="1" parent="1">
          <mxGeometry x="140" y="188" width="40" height="30" as="geometry" />
        </mxCell>
        <mxCell id="EoM2yVk25Wv87Vjmri1m-22" value="1:N" style="text;html=1;align=center;verticalAlign=middle;resizable=0;points=[];autosize=1;strokeColor=none;fillColor=none;" vertex="1" parent="1">
          <mxGeometry x="300" y="188" width="40" height="30" as="geometry" />
        </mxCell>
        <mxCell id="EoM2yVk25Wv87Vjmri1m-23" value="1:N" style="text;html=1;align=center;verticalAlign=middle;resizable=0;points=[];autosize=1;strokeColor=none;fillColor=none;" vertex="1" parent="1">
          <mxGeometry x="390" y="240" width="40" height="30" as="geometry" />
        </mxCell>
        <mxCell id="EoM2yVk25Wv87Vjmri1m-24" value="1:N" style="text;html=1;align=center;verticalAlign=middle;resizable=0;points=[];autosize=1;strokeColor=none;fillColor=none;" vertex="1" parent="1">
          <mxGeometry x="620" y="390" width="40" height="30" as="geometry" />
        </mxCell>
        <mxCell id="EoM2yVk25Wv87Vjmri1m-25" value="N:M" style="text;html=1;align=center;verticalAlign=middle;resizable=0;points=[];autosize=1;strokeColor=none;fillColor=none;" vertex="1" parent="1">
          <mxGeometry x="440" y="390" width="50" height="30" as="geometry" />
        </mxCell>
        <mxCell id="EoM2yVk25Wv87Vjmri1m-26" value="&lt;font style=&quot;font-size: 8px;&quot;&gt;Num. Matri&lt;/font&gt;" style="ellipse;whiteSpace=wrap;html=1;align=center;fontStyle=4;" vertex="1" parent="1">
          <mxGeometry x="330" y="140" width="50" height="20" as="geometry" />
        </mxCell>
        <mxCell id="EoM2yVk25Wv87Vjmri1m-29" value="&lt;font style=&quot;font-size: 8px;&quot;&gt;DNI&lt;/font&gt;" style="ellipse;whiteSpace=wrap;html=1;align=center;fontStyle=4;" vertex="1" parent="1">
          <mxGeometry x="330" y="460" width="50" height="20" as="geometry" />
        </mxCell>
        <mxCell id="EoM2yVk25Wv87Vjmri1m-30" value="Evaluar" style="shape=rhombus;perimeter=rhombusPerimeter;whiteSpace=wrap;html=1;align=center;" vertex="1" parent="1">
          <mxGeometry x="655" y="300" width="110" height="50" as="geometry" />
        </mxCell>
        <mxCell id="EoM2yVk25Wv87Vjmri1m-31" value="" style="endArrow=none;html=1;rounded=0;entryX=0.5;entryY=1;entryDx=0;entryDy=0;exitX=0.5;exitY=0;exitDx=0;exitDy=0;" edge="1" parent="1" source="EoM2yVk25Wv87Vjmri1m-37" target="EoM2yVk25Wv87Vjmri1m-30">
          <mxGeometry relative="1" as="geometry">
            <mxPoint x="710" y="400" as="sourcePoint" />
            <mxPoint x="530" y="280" as="targetPoint" />
          </mxGeometry>
        </mxCell>
        <mxCell id="EoM2yVk25Wv87Vjmri1m-32" value="" style="endArrow=none;html=1;rounded=0;entryX=0.5;entryY=1;entryDx=0;entryDy=0;exitX=0.5;exitY=0;exitDx=0;exitDy=0;" edge="1" parent="1" source="EoM2yVk25Wv87Vjmri1m-30" target="EoM2yVk25Wv87Vjmri1m-36">
          <mxGeometry relative="1" as="geometry">
            <mxPoint x="370" y="280" as="sourcePoint" />
            <mxPoint x="710" y="250" as="targetPoint" />
          </mxGeometry>
        </mxCell>
        <mxCell id="EoM2yVk25Wv87Vjmri1m-33" value="1:1" style="text;html=1;align=center;verticalAlign=middle;resizable=0;points=[];autosize=1;strokeColor=none;fillColor=none;" vertex="1" parent="1">
          <mxGeometry x="710" y="240" width="40" height="30" as="geometry" />
        </mxCell>
        <mxCell id="EoM2yVk25Wv87Vjmri1m-34" value="1:1" style="text;html=1;align=center;verticalAlign=middle;resizable=0;points=[];autosize=1;strokeColor=none;fillColor=none;" vertex="1" parent="1">
          <mxGeometry x="710" y="370" width="40" height="30" as="geometry" />
        </mxCell>
        <mxCell id="EoM2yVk25Wv87Vjmri1m-35" value="&lt;span style=&quot;font-size: 8px;&quot;&gt;N Grupo&lt;/span&gt;" style="ellipse;whiteSpace=wrap;html=1;align=center;fontStyle=4;" vertex="1" parent="1">
          <mxGeometry x="20" y="140" width="50" height="20" as="geometry" />
        </mxCell>
        <mxCell id="EoM2yVk25Wv87Vjmri1m-36" value="Proyecto" style="shape=ext;margin=3;double=1;whiteSpace=wrap;html=1;align=center;" vertex="1" parent="1">
          <mxGeometry x="660" y="200" width="100" height="40" as="geometry" />
        </mxCell>
        <mxCell id="EoM2yVk25Wv87Vjmri1m-37" value="Tribunal" style="shape=ext;margin=3;double=1;whiteSpace=wrap;html=1;align=center;" vertex="1" parent="1">
          <mxGeometry x="660" y="400" width="100" height="40" as="geometry" />
        </mxCell>
        <mxCell id="EoM2yVk25Wv87Vjmri1m-38" value="&lt;font style=&quot;font-size: 8px;&quot;&gt;Num. Proyec&lt;/font&gt;" style="ellipse;whiteSpace=wrap;html=1;align=center;fontStyle=4;" vertex="1" parent="1">
          <mxGeometry x="655" y="140" width="50" height="20" as="geometry" />
        </mxCell>
        <mxCell id="EoM2yVk25Wv87Vjmri1m-40" value="&lt;font style=&quot;font-size: 8px;&quot;&gt;Cod. Trib&lt;/font&gt;" style="ellipse;whiteSpace=wrap;html=1;align=center;fontStyle=4;" vertex="1" parent="1">
          <mxGeometry x="655" y="460" width="50" height="20" as="geometry" />
        </mxCell>
        <mxCell id="EoM2yVk25Wv87Vjmri1m-41" value="&lt;font style=&quot;font-size: 8px;&quot;&gt;Dni&lt;/font&gt;" style="ellipse;whiteSpace=wrap;html=1;align=center;" vertex="1" parent="1">
          <mxGeometry x="380" y="140" width="40" height="20" as="geometry" />
        </mxCell>
        <mxCell id="EoM2yVk25Wv87Vjmri1m-42" value="&lt;font style=&quot;font-size: 8px;&quot;&gt;Nombre&lt;/font&gt;" style="ellipse;whiteSpace=wrap;html=1;align=center;" vertex="1" parent="1">
          <mxGeometry x="420" y="140" width="40" height="20" as="geometry" />
        </mxCell>
        <mxCell id="EoM2yVk25Wv87Vjmri1m-43" value="&lt;font style=&quot;font-size: 8px;&quot;&gt;Tema&lt;/font&gt;" style="ellipse;whiteSpace=wrap;html=1;align=center;" vertex="1" parent="1">
          <mxGeometry x="705" y="140" width="40" height="20" as="geometry" />
        </mxCell>
        <mxCell id="EoM2yVk25Wv87Vjmri1m-44" value="&lt;font style=&quot;font-size: 8px;&quot;&gt;F. Ini&lt;/font&gt;" style="ellipse;whiteSpace=wrap;html=1;align=center;" vertex="1" parent="1">
          <mxGeometry x="745" y="140" width="40" height="20" as="geometry" />
        </mxCell>
        <mxCell id="EoM2yVk25Wv87Vjmri1m-45" value="&lt;font style=&quot;font-size: 8px;&quot;&gt;Nombre&lt;/font&gt;" style="ellipse;whiteSpace=wrap;html=1;align=center;" vertex="1" parent="1">
          <mxGeometry x="380" y="460" width="40" height="20" as="geometry" />
        </mxCell>
        <mxCell id="EoM2yVk25Wv87Vjmri1m-46" value="&lt;font style=&quot;font-size: 8px;&quot;&gt;Direcc&lt;/font&gt;" style="ellipse;whiteSpace=wrap;html=1;align=center;" vertex="1" parent="1">
          <mxGeometry x="420" y="460" width="40" height="20" as="geometry" />
        </mxCell>
        <mxCell id="EoM2yVk25Wv87Vjmri1m-47" value="&lt;font style=&quot;font-size: 8px;&quot;&gt;Lugar&lt;/font&gt;" style="ellipse;whiteSpace=wrap;html=1;align=center;" vertex="1" parent="1">
          <mxGeometry x="705" y="460" width="40" height="20" as="geometry" />
        </mxCell>
        <mxCell id="EoM2yVk25Wv87Vjmri1m-48" value="&lt;font style=&quot;font-size: 8px;&quot;&gt;Miembros&lt;/font&gt;" style="ellipse;whiteSpace=wrap;html=1;align=center;" vertex="1" parent="1">
          <mxGeometry x="745" y="460" width="40" height="20" as="geometry" />
        </mxCell>
        <mxCell id="EoM2yVk25Wv87Vjmri1m-49" value="&lt;span style=&quot;font-size: 8px;&quot;&gt;Nombre&lt;/span&gt;" style="ellipse;whiteSpace=wrap;html=1;align=center;" vertex="1" parent="1">
          <mxGeometry x="70" y="140" width="40" height="20" as="geometry" />
        </mxCell>
        <mxCell id="EoM2yVk25Wv87Vjmri1m-50" value="&lt;font style=&quot;font-size: 8px;&quot;&gt;N. Alumnos&lt;/font&gt;" style="ellipse;whiteSpace=wrap;html=1;align=center;" vertex="1" parent="1">
          <mxGeometry x="110" y="140" width="50" height="20" as="geometry" />
        </mxCell>
        <mxCell id="EoM2yVk25Wv87Vjmri1m-51" value="" style="endArrow=none;html=1;rounded=0;exitX=0.5;exitY=0;exitDx=0;exitDy=0;entryX=0.75;entryY=1;entryDx=0;entryDy=0;" edge="1" parent="1" source="EoM2yVk25Wv87Vjmri1m-46" target="EoM2yVk25Wv87Vjmri1m-4">
          <mxGeometry relative="1" as="geometry">
            <mxPoint x="370" y="290" as="sourcePoint" />
            <mxPoint x="530" y="290" as="targetPoint" />
          </mxGeometry>
        </mxCell>
        <mxCell id="EoM2yVk25Wv87Vjmri1m-52" value="" style="endArrow=none;html=1;rounded=0;exitX=0.5;exitY=0;exitDx=0;exitDy=0;entryX=0.5;entryY=1;entryDx=0;entryDy=0;" edge="1" parent="1" source="EoM2yVk25Wv87Vjmri1m-45" target="EoM2yVk25Wv87Vjmri1m-4">
          <mxGeometry relative="1" as="geometry">
            <mxPoint x="370" y="290" as="sourcePoint" />
            <mxPoint x="530" y="290" as="targetPoint" />
          </mxGeometry>
        </mxCell>
        <mxCell id="EoM2yVk25Wv87Vjmri1m-53" value="" style="endArrow=none;html=1;rounded=0;exitX=0.5;exitY=0;exitDx=0;exitDy=0;entryX=0.25;entryY=1;entryDx=0;entryDy=0;" edge="1" parent="1" source="EoM2yVk25Wv87Vjmri1m-29" target="EoM2yVk25Wv87Vjmri1m-4">
          <mxGeometry relative="1" as="geometry">
            <mxPoint x="370" y="290" as="sourcePoint" />
            <mxPoint x="530" y="290" as="targetPoint" />
          </mxGeometry>
        </mxCell>
        <mxCell id="EoM2yVk25Wv87Vjmri1m-54" value="" style="endArrow=none;html=1;rounded=0;exitX=0.5;exitY=0;exitDx=0;exitDy=0;" edge="1" parent="1" source="EoM2yVk25Wv87Vjmri1m-48">
          <mxGeometry relative="1" as="geometry">
            <mxPoint x="370" y="290" as="sourcePoint" />
            <mxPoint x="740" y="440" as="targetPoint" />
          </mxGeometry>
        </mxCell>
        <mxCell id="EoM2yVk25Wv87Vjmri1m-55" value="" style="endArrow=none;html=1;rounded=0;exitX=0.5;exitY=0;exitDx=0;exitDy=0;entryX=0.5;entryY=1;entryDx=0;entryDy=0;" edge="1" parent="1" source="EoM2yVk25Wv87Vjmri1m-47" target="EoM2yVk25Wv87Vjmri1m-37">
          <mxGeometry relative="1" as="geometry">
            <mxPoint x="370" y="290" as="sourcePoint" />
            <mxPoint x="530" y="290" as="targetPoint" />
          </mxGeometry>
        </mxCell>
        <mxCell id="EoM2yVk25Wv87Vjmri1m-56" value="" style="endArrow=none;html=1;rounded=0;exitX=0.5;exitY=0;exitDx=0;exitDy=0;entryX=0.25;entryY=1;entryDx=0;entryDy=0;" edge="1" parent="1" source="EoM2yVk25Wv87Vjmri1m-40" target="EoM2yVk25Wv87Vjmri1m-37">
          <mxGeometry relative="1" as="geometry">
            <mxPoint x="370" y="290" as="sourcePoint" />
            <mxPoint x="530" y="290" as="targetPoint" />
          </mxGeometry>
        </mxCell>
        <mxCell id="EoM2yVk25Wv87Vjmri1m-57" value="" style="endArrow=none;html=1;rounded=0;exitX=0.5;exitY=1;exitDx=0;exitDy=0;entryX=0.75;entryY=0;entryDx=0;entryDy=0;" edge="1" parent="1" source="EoM2yVk25Wv87Vjmri1m-44" target="EoM2yVk25Wv87Vjmri1m-36">
          <mxGeometry relative="1" as="geometry">
            <mxPoint x="370" y="290" as="sourcePoint" />
            <mxPoint x="530" y="290" as="targetPoint" />
          </mxGeometry>
        </mxCell>
        <mxCell id="EoM2yVk25Wv87Vjmri1m-58" value="" style="endArrow=none;html=1;rounded=0;exitX=0.5;exitY=1;exitDx=0;exitDy=0;entryX=0.5;entryY=0;entryDx=0;entryDy=0;" edge="1" parent="1" source="EoM2yVk25Wv87Vjmri1m-43" target="EoM2yVk25Wv87Vjmri1m-36">
          <mxGeometry relative="1" as="geometry">
            <mxPoint x="370" y="290" as="sourcePoint" />
            <mxPoint x="530" y="290" as="targetPoint" />
          </mxGeometry>
        </mxCell>
        <mxCell id="EoM2yVk25Wv87Vjmri1m-59" value="" style="endArrow=none;html=1;rounded=0;exitX=0.5;exitY=1;exitDx=0;exitDy=0;entryX=0.25;entryY=0;entryDx=0;entryDy=0;" edge="1" parent="1" source="EoM2yVk25Wv87Vjmri1m-38" target="EoM2yVk25Wv87Vjmri1m-36">
          <mxGeometry relative="1" as="geometry">
            <mxPoint x="370" y="290" as="sourcePoint" />
            <mxPoint x="530" y="290" as="targetPoint" />
          </mxGeometry>
        </mxCell>
        <mxCell id="EoM2yVk25Wv87Vjmri1m-60" value="" style="endArrow=none;html=1;rounded=0;exitX=0.5;exitY=1;exitDx=0;exitDy=0;entryX=0.75;entryY=0;entryDx=0;entryDy=0;" edge="1" parent="1" source="EoM2yVk25Wv87Vjmri1m-42" target="EoM2yVk25Wv87Vjmri1m-1">
          <mxGeometry relative="1" as="geometry">
            <mxPoint x="370" y="290" as="sourcePoint" />
            <mxPoint x="530" y="290" as="targetPoint" />
          </mxGeometry>
        </mxCell>
        <mxCell id="EoM2yVk25Wv87Vjmri1m-61" value="" style="endArrow=none;html=1;rounded=0;exitX=0.5;exitY=1;exitDx=0;exitDy=0;entryX=0.5;entryY=0;entryDx=0;entryDy=0;" edge="1" parent="1" source="EoM2yVk25Wv87Vjmri1m-41" target="EoM2yVk25Wv87Vjmri1m-1">
          <mxGeometry relative="1" as="geometry">
            <mxPoint x="370" y="290" as="sourcePoint" />
            <mxPoint x="530" y="290" as="targetPoint" />
          </mxGeometry>
        </mxCell>
        <mxCell id="EoM2yVk25Wv87Vjmri1m-62" value="" style="endArrow=none;html=1;rounded=0;exitX=0.5;exitY=1;exitDx=0;exitDy=0;entryX=0.25;entryY=0;entryDx=0;entryDy=0;" edge="1" parent="1" source="EoM2yVk25Wv87Vjmri1m-26" target="EoM2yVk25Wv87Vjmri1m-1">
          <mxGeometry relative="1" as="geometry">
            <mxPoint x="370" y="290" as="sourcePoint" />
            <mxPoint x="530" y="290" as="targetPoint" />
          </mxGeometry>
        </mxCell>
        <mxCell id="EoM2yVk25Wv87Vjmri1m-63" value="" style="endArrow=none;html=1;rounded=0;exitX=0.5;exitY=1;exitDx=0;exitDy=0;entryX=0.75;entryY=0;entryDx=0;entryDy=0;" edge="1" parent="1" source="EoM2yVk25Wv87Vjmri1m-50" target="EoM2yVk25Wv87Vjmri1m-3">
          <mxGeometry relative="1" as="geometry">
            <mxPoint x="370" y="290" as="sourcePoint" />
            <mxPoint x="530" y="290" as="targetPoint" />
          </mxGeometry>
        </mxCell>
        <mxCell id="EoM2yVk25Wv87Vjmri1m-64" value="" style="endArrow=none;html=1;rounded=0;exitX=0.5;exitY=1;exitDx=0;exitDy=0;entryX=0.5;entryY=0;entryDx=0;entryDy=0;" edge="1" parent="1" source="EoM2yVk25Wv87Vjmri1m-49" target="EoM2yVk25Wv87Vjmri1m-3">
          <mxGeometry relative="1" as="geometry">
            <mxPoint x="370" y="290" as="sourcePoint" />
            <mxPoint x="530" y="290" as="targetPoint" />
          </mxGeometry>
        </mxCell>
        <mxCell id="EoM2yVk25Wv87Vjmri1m-65" value="" style="endArrow=none;html=1;rounded=0;exitX=0.5;exitY=1;exitDx=0;exitDy=0;entryX=0.25;entryY=0;entryDx=0;entryDy=0;" edge="1" parent="1" source="EoM2yVk25Wv87Vjmri1m-35" target="EoM2yVk25Wv87Vjmri1m-3">
          <mxGeometry relative="1" as="geometry">
            <mxPoint x="370" y="290" as="sourcePoint" />
            <mxPoint x="530" y="290" as="targetPoint" />
          </mxGeometry>
        </mxCell>
      </root>
    </mxGraphModel>
  </diagram>
</mxfile>
